<svg width="314" height="169" viewBox="0 0 314 169" fill="none" xmlns="http://www.w3.org/2000/svg">
<g clip-path="url(#clip0_315_1400)">
<path d="M20.5 20H293.796V102.08H20.5V20ZM20.5 102.08H247.688V148.927H20.5V102.08ZM247.477 148.927L201.157 102.08H293.796L247.477 148.927Z" fill="white"/>
<path d="M25.1719 25.4946H289.126V100.579H25.1719V25.4946ZM25.1719 100.579H244.594V143.433H25.1719V100.579ZM244.391 143.433L199.654 100.579H289.126L244.391 143.433Z" fill="#922819"/>
<path d="M59.1036 88.4045C59.2328 90.7075 59.7766 92.5778 60.7354 94.0149C62.5608 96.7046 65.7785 98.05 70.3886 98.05C72.4534 98.05 74.3342 97.7549 76.0309 97.1652C79.313 96.0232 80.9543 93.978 80.9543 91.03C80.9543 88.8193 80.2628 87.2436 78.8794 86.3039C77.4781 85.3828 75.2841 84.5812 72.2968 83.8998L66.7927 82.6561C63.1968 81.8456 60.6526 80.9518 59.159 79.9753C56.5773 78.28 55.2867 75.7467 55.2867 72.3751C55.2867 68.7273 56.5499 65.7329 59.0756 63.393C61.6019 61.0532 65.1794 59.8833 69.8074 59.8833C74.0668 59.8833 77.6856 60.9107 80.6639 62.9649C83.6417 65.0191 85.1309 68.3036 85.1309 72.8172H79.9585C79.6816 70.6434 79.092 68.976 78.188 67.815C76.5103 65.696 73.6612 64.6367 69.6418 64.6367C66.3961 64.6367 64.0639 65.3187 62.6441 66.682C61.2238 68.0453 60.5139 69.63 60.5139 71.4354C60.5139 73.4254 61.344 74.8809 63.0033 75.8021C64.0913 76.3918 66.5527 77.1285 70.3886 78.0128L76.0863 79.3118C78.8335 79.9384 80.9543 80.7953 82.4479 81.8819C85.029 83.7802 86.3201 86.5342 86.3201 90.1457C86.3201 94.6415 84.6833 97.8561 81.4102 99.7906C78.1376 101.725 74.3342 102.693 70.001 102.693C64.9489 102.693 60.9933 101.403 58.1352 98.8237C55.2772 96.2625 53.8759 92.7896 53.9313 88.4045H59.1036Z" fill="white"/>
<path d="M126.11 60.9058V65.7425H112.419V101.505H106.832V65.7425H93.1406V60.9058H126.11Z" fill="white"/>
<path d="M151.074 84.8669L144.906 66.9309L138.351 84.8669H151.074ZM142.03 60.9058H148.253L162.996 101.505H156.966L152.844 89.3443H136.775L132.377 101.505H126.734L142.03 60.9058Z" fill="white"/>
<path d="M190.145 79.5054C192.726 79.5054 194.769 78.9894 196.271 77.9581C197.775 76.9263 198.526 75.0655 198.526 72.3752C198.526 69.4825 197.475 67.5111 195.372 66.4608C194.248 65.9085 192.745 65.6318 190.864 65.6318H177.422V79.5054H190.145ZM171.918 60.9058H190.726C193.823 60.9058 196.378 61.3574 198.388 62.2601C202.205 63.9918 204.113 67.1885 204.113 71.8503C204.113 74.2824 203.61 76.2723 202.606 77.8195C201.6 79.3673 200.195 80.611 198.388 81.5506C199.973 82.1957 201.167 83.043 201.969 84.0933C202.771 85.1436 203.219 86.8479 203.311 89.2062L203.504 94.6505C203.559 96.1983 203.689 97.3498 203.892 98.1049C204.223 99.395 204.814 100.224 205.662 100.592V101.505H198.913C198.728 101.155 198.581 100.703 198.471 100.15C198.36 99.5974 198.267 98.5292 198.194 96.9445L197.862 90.1732C197.733 87.5204 196.746 85.7423 194.903 84.8396C193.851 84.3421 192.201 84.0933 189.951 84.0933H177.422V101.505H171.918V60.9058Z" fill="white"/>
<path d="M243.985 60.9058V65.7425H230.294V101.505H224.707V65.7425H211.016V60.9058H243.985Z" fill="white"/>
<path d="M20.5 168.927H293.796V251.007H20.5V168.927ZM20.5 251.007H247.688V297.854H20.5V251.007ZM247.477 297.854L201.157 251.007H293.796L247.477 297.854Z" fill="#922819"/>
</g>
<rect x="1" y="0.5" width="312" height="168" rx="4.5" stroke="#FAC427" stroke-dasharray="10 5"/>
<defs>
<clipPath id="clip0_315_1400">
<rect x="0.5" width="313" height="169" rx="5" fill="white"/>
</clipPath>
</defs>
</svg>
