<svg width="1692" height="740" viewBox="0 0 1692 740" fill="none" xmlns="http://www.w3.org/2000/svg">
<path d="M0 116.169H62.3528C82.0446 116.169 96.9682 117.578 107.109 120.395C117.251 123.212 125.444 128.912 131.682 137.5C137.92 146.087 141.036 159.922 141.036 179.004C141.036 191.908 138.834 200.903 134.432 205.995C130.029 211.086 121.344 214.989 108.382 217.716C122.828 220.721 132.631 225.703 137.772 232.662C142.92 239.622 145.494 250.29 145.494 264.668V285.139C145.494 300.059 143.638 311.115 139.924 318.301C136.211 325.486 130.297 330.404 122.188 333.04C114.072 335.676 97.4464 336.995 72.3112 336.995H0V116.169ZM62.5005 153.951V203.054C65.1729 202.964 67.2476 202.919 68.7385 202.919C74.8711 202.919 78.7814 201.536 80.4692 198.757C82.1501 195.985 82.994 188.05 82.994 174.959C82.994 168.051 82.2978 163.205 80.9123 160.432C79.5268 157.66 77.7194 155.909 75.49 155.179C73.2606 154.455 68.9355 154.042 62.5005 153.951ZM62.5005 237.425V299.212C71.3055 298.941 76.9247 297.668 79.351 295.394C81.7773 293.119 82.987 287.53 82.987 278.619V258.025C82.987 248.571 81.8969 242.84 79.7238 240.837C77.5436 238.84 71.8048 237.696 62.5005 237.425Z" fill="#780116"/>
<path d="M293.035 300.032V337H163.442L163.477 306.061C201.862 248.383 224.677 212.688 231.92 198.976C239.157 185.27 242.779 174.576 242.779 166.9C242.779 161.006 241.682 156.612 239.495 153.705C237.301 150.803 233.974 149.349 229.494 149.349C225.014 149.349 221.681 150.958 219.493 154.17C217.299 157.381 216.209 163.772 216.209 173.323V193.949H163.442V186.046C163.442 173.904 164.124 164.328 165.482 157.317C166.839 150.306 170.194 143.411 175.538 136.626C180.883 129.841 187.832 124.704 196.384 121.221C204.936 117.738 215.189 116 227.138 116C250.557 116 268.266 121.337 280.271 132.006C292.269 142.674 298.275 156.179 298.275 172.521C298.275 184.934 294.899 198.058 288.141 211.9C281.382 225.741 261.486 255.116 228.446 300.032H293.035Z" fill="#780116"/>
<path d="M320.506 116.169H382.858C402.55 116.169 417.474 117.578 427.615 120.395C437.756 123.212 445.949 128.912 452.188 137.5C458.426 146.087 461.541 159.922 461.541 179.004C461.541 191.908 459.34 200.903 454.937 205.995C450.535 211.086 441.849 214.989 428.888 217.716C443.333 220.721 453.137 225.703 458.278 232.662C463.426 239.622 466 250.29 466 264.668V285.139C466 300.059 464.143 311.115 460.43 318.301C456.717 325.486 450.802 330.404 442.693 333.04C434.577 335.676 417.952 336.995 392.817 336.995H320.52V116.169H320.506ZM383.006 153.951V203.054C385.678 202.964 387.753 202.919 389.244 202.919C395.377 202.919 399.287 201.536 400.975 198.757C402.656 195.985 403.5 188.05 403.5 174.959C403.5 168.051 402.803 163.205 401.418 160.432C400.032 157.66 398.225 155.909 395.996 155.179C393.766 154.455 389.441 154.042 383.006 153.951ZM383.006 237.425V299.212C391.811 298.941 397.43 297.668 399.857 295.394C402.283 293.119 403.493 287.53 403.493 278.619V258.025C403.493 248.571 402.402 242.84 400.229 240.837C398.049 238.84 392.31 237.696 383.006 237.425Z" fill="#780116"/>
<path d="M444 354.5L322.5 707H197L75 354.5H180L260 609L339.5 354.5H444Z" fill="#780116"/>
<path d="M1117.52 361C1136.85 250.333 1174.18 162.667 1229.52 98C1285.52 32.6667 1362.85 0 1461.52 0C1540.85 0 1598.85 21.6667 1635.52 65C1672.85 107.667 1691.52 167.333 1691.52 244C1691.52 275.333 1687.52 314.333 1679.52 361C1660.18 471.667 1622.52 559.667 1566.52 625C1510.52 689.667 1433.18 722 1334.52 722C1255.18 722 1197.18 700.667 1160.52 658C1124.52 614.667 1106.52 554.667 1106.52 478C1106.52 442.667 1110.18 403.667 1117.52 361ZM1510.52 361C1517.85 319.667 1521.52 287.333 1521.52 264C1521.52 230.667 1514.85 205 1501.52 187C1488.18 169 1465.52 160 1433.52 160C1387.52 160 1353.85 177.667 1332.52 213C1311.85 248.333 1296.18 297.667 1285.52 361C1278.18 402.333 1274.52 434.667 1274.52 458C1274.52 491.333 1281.18 517 1294.52 535C1307.85 553 1330.52 562 1362.52 562C1408.52 562 1441.85 544.333 1462.52 509C1483.85 473.667 1499.85 424.333 1510.52 361Z" fill="#780116"/>
<path d="M994.289 740C967.622 740 946.289 733 930.289 719C914.956 704.333 907.289 686 907.289 664C907.289 633.333 918.622 607.333 941.289 586C964.622 564.667 993.289 554 1027.29 554C1053.29 554 1073.96 561.333 1089.29 576C1104.62 590 1112.29 608.333 1112.29 631C1112.29 661 1100.62 686.667 1077.29 708C1054.62 729.333 1026.96 740 994.289 740Z" fill="#780116"/>
<path d="M444 567C516.667 515 574.667 472 618 438C661.333 404 698.667 369.333 730 334C762 298 780.667 263.667 786 231C788 221.667 789 213 789 205C789 185.667 783.667 171 773 161C763 151 747.667 146 727 146C675.667 146 643 182.333 629 255H463C480.333 171 516.333 108 571 66C626.333 23.3334 689.667 2 761 2C830.333 2 881.667 17.6667 915 49C949 80.3333 966 121.667 966 173C966 189 964.667 203.667 962 217C950 285 914.667 348.333 856 407C798 465.667 726 524.333 640 583H910L885 722H383L405 595L444 567Z" fill="#780116"/>
<path d="M0 116.169H62.3528C82.0446 116.169 96.9682 117.578 107.109 120.395C117.251 123.212 125.444 128.912 131.682 137.5C137.92 146.087 141.036 159.922 141.036 179.004C141.036 191.908 138.834 200.903 134.432 205.995C130.029 211.086 121.344 214.989 108.382 217.716C122.828 220.721 132.631 225.703 137.772 232.662C142.92 239.622 145.494 250.29 145.494 264.668V285.139C145.494 300.059 143.638 311.115 139.924 318.301C136.211 325.486 130.297 330.404 122.188 333.04C114.072 335.676 97.4464 336.995 72.3112 336.995H0V116.169ZM62.5005 153.951V203.054C65.1729 202.964 67.2476 202.919 68.7385 202.919C74.8711 202.919 78.7814 201.536 80.4692 198.757C82.1501 195.985 82.994 188.05 82.994 174.959C82.994 168.051 82.2978 163.205 80.9123 160.432C79.5268 157.66 77.7194 155.909 75.49 155.179C73.2606 154.455 68.9355 154.042 62.5005 153.951ZM62.5005 237.425V299.212C71.3055 298.941 76.9247 297.668 79.351 295.394C81.7773 293.119 82.987 287.53 82.987 278.619V258.025C82.987 248.571 81.8969 242.84 79.7238 240.837C77.5436 238.84 71.8048 237.696 62.5005 237.425Z" fill="#780116"/>
<path d="M293.035 300.032V337H163.442L163.477 306.061C201.862 248.383 224.677 212.688 231.92 198.976C239.157 185.27 242.779 174.576 242.779 166.9C242.779 161.006 241.682 156.612 239.495 153.705C237.301 150.803 233.974 149.349 229.494 149.349C225.014 149.349 221.681 150.958 219.493 154.17C217.299 157.381 216.209 163.772 216.209 173.323V193.949H163.442V186.046C163.442 173.904 164.124 164.328 165.482 157.317C166.839 150.306 170.194 143.411 175.538 136.626C180.883 129.841 187.832 124.704 196.384 121.221C204.936 117.738 215.189 116 227.138 116C250.557 116 268.266 121.337 280.271 132.006C292.269 142.674 298.275 156.179 298.275 172.521C298.275 184.934 294.899 198.058 288.141 211.9C281.382 225.741 261.486 255.116 228.446 300.032H293.035Z" fill="#780116"/>
<path d="M320.506 116.169H382.858C402.55 116.169 417.474 117.578 427.615 120.395C437.756 123.212 445.949 128.912 452.188 137.5C458.426 146.087 461.541 159.922 461.541 179.004C461.541 191.908 459.34 200.903 454.937 205.995C450.535 211.086 441.849 214.989 428.888 217.716C443.333 220.721 453.137 225.703 458.278 232.662C463.426 239.622 466 250.29 466 264.668V285.139C466 300.059 464.143 311.115 460.43 318.301C456.717 325.486 450.802 330.404 442.693 333.04C434.577 335.676 417.952 336.995 392.817 336.995H320.52V116.169H320.506ZM383.006 153.951V203.054C385.678 202.964 387.753 202.919 389.244 202.919C395.377 202.919 399.287 201.536 400.975 198.757C402.656 195.985 403.5 188.05 403.5 174.959C403.5 168.051 402.803 163.205 401.418 160.432C400.032 157.66 398.225 155.909 395.996 155.179C393.766 154.455 389.441 154.042 383.006 153.951ZM383.006 237.425V299.212C391.811 298.941 397.43 297.668 399.857 295.394C402.283 293.119 403.493 287.53 403.493 278.619V258.025C403.493 248.571 402.402 242.84 400.229 240.837C398.049 238.84 392.31 237.696 383.006 237.425Z" fill="#780116"/>
<path d="M444 354.5L322.5 707H197L75 354.5H180L260 609L339.5 354.5H444Z" fill="#780116"/>
<path d="M1117.52 361C1136.85 250.333 1174.18 162.667 1229.52 98C1285.52 32.6667 1362.85 0 1461.52 0C1540.85 0 1598.85 21.6667 1635.52 65C1672.85 107.667 1691.52 167.333 1691.52 244C1691.52 275.333 1687.52 314.333 1679.52 361C1660.18 471.667 1622.52 559.667 1566.52 625C1510.52 689.667 1433.18 722 1334.52 722C1255.18 722 1197.18 700.667 1160.52 658C1124.52 614.667 1106.52 554.667 1106.52 478C1106.52 442.667 1110.18 403.667 1117.52 361ZM1510.52 361C1517.85 319.667 1521.52 287.333 1521.52 264C1521.52 230.667 1514.85 205 1501.52 187C1488.18 169 1465.52 160 1433.52 160C1387.52 160 1353.85 177.667 1332.52 213C1311.85 248.333 1296.18 297.667 1285.52 361C1278.18 402.333 1274.52 434.667 1274.52 458C1274.52 491.333 1281.18 517 1294.52 535C1307.85 553 1330.52 562 1362.52 562C1408.52 562 1441.85 544.333 1462.52 509C1483.85 473.667 1499.85 424.333 1510.52 361Z" fill="#780116"/>
<path d="M994.289 740C967.622 740 946.289 733 930.289 719C914.956 704.333 907.289 686 907.289 664C907.289 633.333 918.622 607.333 941.289 586C964.622 564.667 993.289 554 1027.29 554C1053.29 554 1073.96 561.333 1089.29 576C1104.62 590 1112.29 608.333 1112.29 631C1112.29 661 1100.62 686.667 1077.29 708C1054.62 729.333 1026.96 740 994.289 740Z" fill="#780116"/>
<path d="M444 567C516.667 515 574.667 472 618 438C661.333 404 698.667 369.333 730 334C762 298 780.667 263.667 786 231C788 221.667 789 213 789 205C789 185.667 783.667 171 773 161C763 151 747.667 146 727 146C675.667 146 643 182.333 629 255H463C480.333 171 516.333 108 571 66C626.333 23.3334 689.667 2 761 2C830.333 2 881.667 17.6667 915 49C949 80.3333 966 121.667 966 173C966 189 964.667 203.667 962 217C950 285 914.667 348.333 856 407C798 465.667 726 524.333 640 583H910L885 722H383L405 595L444 567Z" fill="#780116"/>
<path d="M0 116.168H62.3528C82.0446 116.168 96.9682 117.577 107.109 120.394C117.251 123.211 125.444 128.911 131.682 137.498C137.92 146.086 141.036 159.921 141.036 179.003C141.036 191.907 138.834 200.902 134.432 205.993C130.029 211.085 121.344 214.988 108.382 217.715C122.828 220.72 132.631 225.702 137.772 232.661C142.92 239.621 145.494 250.289 145.494 264.667V285.138C145.494 300.058 143.638 311.114 139.924 318.299C136.211 325.485 130.297 330.402 122.188 333.039C114.072 335.675 97.4464 336.993 72.3112 336.993H0V116.168ZM62.5005 153.95V203.053C65.1729 202.963 67.2476 202.918 68.7385 202.918C74.8711 202.918 78.7814 201.535 80.4692 198.756C82.1501 195.984 82.994 188.049 82.994 174.957C82.994 168.05 82.2978 163.203 80.9123 160.431C79.5268 157.659 77.7194 155.908 75.49 155.178C73.2606 154.454 68.9355 154.041 62.5005 153.95ZM62.5005 237.424V299.211C71.3055 298.94 76.9247 297.667 79.351 295.392C81.7773 293.118 82.987 287.528 82.987 278.618V258.024C82.987 248.57 81.8969 242.839 79.7238 240.835C77.5436 238.839 71.8048 237.695 62.5005 237.424Z" fill="#780116"/>
<path d="M293.035 300.032V337H163.442L163.477 306.061C201.862 248.383 224.677 212.688 231.92 198.976C239.157 185.27 242.779 174.576 242.779 166.9C242.779 161.006 241.682 156.612 239.495 153.705C237.301 150.803 233.974 149.349 229.494 149.349C225.014 149.349 221.681 150.958 219.493 154.17C217.299 157.381 216.209 163.772 216.209 173.323V193.949H163.442V186.046C163.442 173.904 164.124 164.328 165.482 157.317C166.839 150.306 170.194 143.411 175.538 136.626C180.883 129.841 187.832 124.704 196.384 121.221C204.936 117.738 215.189 116 227.138 116C250.557 116 268.266 121.337 280.271 132.006C292.269 142.674 298.275 156.179 298.275 172.521C298.275 184.934 294.899 198.058 288.141 211.9C281.382 225.741 261.486 255.116 228.446 300.032H293.035Z" fill="#780116"/>
<path d="M320.506 116.168H382.858C402.55 116.168 417.474 117.577 427.615 120.394C437.756 123.211 445.95 128.911 452.188 137.498C458.426 146.086 461.541 159.921 461.541 179.003C461.541 191.907 459.34 200.902 454.938 205.993C450.535 211.085 441.849 214.988 428.888 217.715C443.333 220.72 453.137 225.702 458.278 232.661C463.426 239.621 466 250.289 466 264.667V285.138C466 300.058 464.143 311.114 460.43 318.299C456.717 325.485 450.802 330.402 442.693 333.039C434.578 335.675 417.952 336.993 392.817 336.993H320.52V116.168H320.506ZM383.006 153.95V203.053C385.678 202.963 387.753 202.918 389.244 202.918C395.377 202.918 399.287 201.535 400.975 198.756C402.656 195.984 403.5 188.049 403.5 174.957C403.5 168.05 402.803 163.203 401.418 160.431C400.032 157.659 398.225 155.908 395.996 155.178C393.766 154.454 389.441 154.041 383.006 153.95ZM383.006 237.424V299.211C391.811 298.94 397.43 297.667 399.857 295.392C402.283 293.118 403.493 287.528 403.493 278.618V258.024C403.493 248.57 402.403 242.839 400.229 240.835C398.049 238.839 392.31 237.695 383.006 237.424Z" fill="#780116"/>
<path d="M444 354.5L322.5 707H197L75 354.5H180L260 609L339.5 354.5H444Z" fill="#780116"/>
<path d="M1117.52 361C1136.85 250.333 1174.18 162.667 1229.52 98C1285.52 32.6667 1362.85 0 1461.52 0C1540.85 0 1598.85 21.6667 1635.52 65C1672.85 107.667 1691.52 167.333 1691.52 244C1691.52 275.333 1687.52 314.333 1679.52 361C1660.18 471.667 1622.52 559.667 1566.52 625C1510.52 689.667 1433.18 722 1334.52 722C1255.18 722 1197.18 700.667 1160.52 658C1124.52 614.667 1106.52 554.667 1106.52 478C1106.52 442.667 1110.18 403.667 1117.52 361ZM1510.52 361C1517.85 319.667 1521.52 287.333 1521.52 264C1521.52 230.667 1514.85 205 1501.52 187C1488.18 169 1465.52 160 1433.52 160C1387.52 160 1353.85 177.667 1332.52 213C1311.85 248.333 1296.18 297.667 1285.52 361C1278.18 402.333 1274.52 434.667 1274.52 458C1274.52 491.333 1281.18 517 1294.52 535C1307.85 553 1330.52 562 1362.52 562C1408.52 562 1441.85 544.333 1462.52 509C1483.85 473.667 1499.85 424.333 1510.52 361Z" fill="#780116"/>
<path d="M994.289 740C967.622 740 946.289 733 930.289 719C914.956 704.333 907.289 686 907.289 664C907.289 633.333 918.622 607.333 941.289 586C964.622 564.667 993.289 554 1027.29 554C1053.29 554 1073.96 561.333 1089.29 576C1104.62 590 1112.29 608.333 1112.29 631C1112.29 661 1100.62 686.667 1077.29 708C1054.62 729.333 1026.96 740 994.289 740Z" fill="#780116"/>
<path d="M444 567C516.667 515 574.667 472 618 438C661.333 404 698.667 369.333 730 334C762 298 780.667 263.667 786 231C788 221.667 789 213 789 205C789 185.667 783.667 171 773 161C763 151 747.667 146 727 146C675.667 146 643 182.333 629 255H463C480.333 171 516.333 108 571 66C626.333 23.3334 689.667 2 761 2C830.333 2 881.667 17.6667 915 49C949 80.3333 966 121.667 966 173C966 189 964.667 203.667 962 217C950 285 914.667 348.333 856 407C798 465.667 726 524.333 640 583H910L885 722H383L405 595L444 567Z" fill="#780116"/>
<path d="M0 116.168H62.3528C82.0446 116.168 96.9682 117.577 107.109 120.394C117.251 123.211 125.444 128.911 131.682 137.498C137.92 146.086 141.036 159.921 141.036 179.003C141.036 191.907 138.834 200.902 134.432 205.993C130.029 211.085 121.344 214.988 108.382 217.715C122.828 220.72 132.631 225.702 137.772 232.661C142.92 239.621 145.494 250.289 145.494 264.667V285.138C145.494 300.058 143.638 311.114 139.924 318.299C136.211 325.485 130.297 330.402 122.188 333.039C114.072 335.675 97.4464 336.993 72.3112 336.993H0V116.168ZM62.5005 153.95V203.053C65.1729 202.963 67.2476 202.918 68.7385 202.918C74.8711 202.918 78.7814 201.535 80.4692 198.756C82.1501 195.984 82.994 188.049 82.994 174.957C82.994 168.05 82.2978 163.203 80.9123 160.431C79.5268 157.659 77.7194 155.908 75.49 155.178C73.2606 154.454 68.9355 154.041 62.5005 153.95ZM62.5005 237.424V299.211C71.3055 298.94 76.9247 297.667 79.351 295.392C81.7773 293.118 82.987 287.528 82.987 278.618V258.024C82.987 248.57 81.8969 242.839 79.7238 240.835C77.5436 238.839 71.8048 237.695 62.5005 237.424Z" fill="#780116"/>
<path d="M293.035 300.032V337H163.442L163.477 306.061C201.862 248.383 224.677 212.688 231.92 198.976C239.157 185.27 242.779 174.576 242.779 166.9C242.779 161.006 241.682 156.612 239.495 153.705C237.301 150.803 233.974 149.349 229.494 149.349C225.014 149.349 221.681 150.958 219.493 154.17C217.299 157.381 216.209 163.772 216.209 173.323V193.949H163.442V186.046C163.442 173.904 164.124 164.328 165.482 157.317C166.839 150.306 170.194 143.411 175.538 136.626C180.883 129.841 187.832 124.704 196.384 121.221C204.936 117.738 215.189 116 227.138 116C250.557 116 268.266 121.337 280.271 132.006C292.269 142.674 298.275 156.179 298.275 172.521C298.275 184.934 294.899 198.058 288.141 211.9C281.382 225.741 261.486 255.116 228.446 300.032H293.035Z" fill="#780116"/>
<path d="M320.506 116.168H382.858C402.55 116.168 417.474 117.577 427.615 120.394C437.756 123.211 445.95 128.911 452.188 137.498C458.426 146.086 461.541 159.921 461.541 179.003C461.541 191.907 459.34 200.902 454.938 205.993C450.535 211.085 441.849 214.988 428.888 217.715C443.333 220.72 453.137 225.702 458.278 232.661C463.426 239.621 466 250.289 466 264.667V285.138C466 300.058 464.143 311.114 460.43 318.299C456.717 325.485 450.802 330.402 442.693 333.039C434.578 335.675 417.952 336.993 392.817 336.993H320.52V116.168H320.506ZM383.006 153.95V203.053C385.678 202.963 387.753 202.918 389.244 202.918C395.377 202.918 399.287 201.535 400.975 198.756C402.656 195.984 403.5 188.049 403.5 174.957C403.5 168.05 402.803 163.203 401.418 160.431C400.032 157.659 398.225 155.908 395.996 155.178C393.766 154.454 389.441 154.041 383.006 153.95ZM383.006 237.424V299.211C391.811 298.94 397.43 297.667 399.857 295.392C402.283 293.118 403.493 287.528 403.493 278.618V258.024C403.493 248.57 402.403 242.839 400.229 240.835C398.049 238.839 392.31 237.695 383.006 237.424Z" fill="#780116"/>
<path d="M444 354.5L322.5 707H197L75 354.5H180L260 609L339.5 354.5H444Z" fill="#780116"/>
<path d="M1117.52 361C1136.85 250.333 1174.18 162.667 1229.52 98C1285.52 32.6667 1362.85 0 1461.52 0C1540.85 0 1598.85 21.6667 1635.52 65C1672.85 107.667 1691.52 167.333 1691.52 244C1691.52 275.333 1687.52 314.333 1679.52 361C1660.18 471.667 1622.52 559.667 1566.52 625C1510.52 689.667 1433.18 722 1334.52 722C1255.18 722 1197.18 700.667 1160.52 658C1124.52 614.667 1106.52 554.667 1106.52 478C1106.52 442.667 1110.18 403.667 1117.52 361ZM1510.52 361C1517.85 319.667 1521.52 287.333 1521.52 264C1521.52 230.667 1514.85 205 1501.52 187C1488.18 169 1465.52 160 1433.52 160C1387.52 160 1353.85 177.667 1332.52 213C1311.85 248.333 1296.18 297.667 1285.52 361C1278.18 402.333 1274.52 434.667 1274.52 458C1274.52 491.333 1281.18 517 1294.52 535C1307.85 553 1330.52 562 1362.52 562C1408.52 562 1441.85 544.333 1462.52 509C1483.85 473.667 1499.85 424.333 1510.52 361Z" fill="#780116"/>
<path d="M994.289 740C967.622 740 946.289 733 930.289 719C914.956 704.333 907.289 686 907.289 664C907.289 633.333 918.622 607.333 941.289 586C964.622 564.667 993.289 554 1027.29 554C1053.29 554 1073.96 561.333 1089.29 576C1104.62 590 1112.29 608.333 1112.29 631C1112.29 661 1100.62 686.667 1077.29 708C1054.62 729.333 1026.96 740 994.289 740Z" fill="#780116"/>
<path d="M444 567C516.667 515 574.667 472 618 438C661.333 404 698.667 369.333 730 334C762 298 780.667 263.667 786 231C788 221.667 789 213 789 205C789 185.667 783.667 171 773 161C763 151 747.667 146 727 146C675.667 146 643 182.333 629 255H463C480.333 171 516.333 108 571 66C626.333 23.3334 689.667 2 761 2C830.333 2 881.667 17.6667 915 49C949 80.3333 966 121.667 966 173C966 189 964.667 203.667 962 217C950 285 914.667 348.333 856 407C798 465.667 726 524.333 640 583H910L885 722H383L405 595L444 567Z" fill="#780116"/>
</svg>
