<svg width="274" height="129" viewBox="0 0 274 129" fill="none" xmlns="http://www.w3.org/2000/svg">
<path d="M0.5 0H273.796V82.0802H0.5V0ZM0.5 82.0802H227.688V128.927H0.5V82.0802ZM227.477 128.927L181.157 82.0802H273.796L227.477 128.927Z" fill="white"/>
<path d="M5.17188 5.49463H269.126V80.5788H5.17188V5.49463ZM5.17188 80.5788H224.594V123.433H5.17188V80.5788ZM224.391 123.433L179.654 80.5788H269.126L224.391 123.433Z" fill="#922819"/>
<path d="M39.1036 68.4045C39.2328 70.7075 39.7766 72.5778 40.7354 74.0149C42.5608 76.7046 45.7785 78.05 50.3886 78.05C52.4534 78.05 54.3342 77.7549 56.0309 77.1652C59.313 76.0232 60.9543 73.978 60.9543 71.03C60.9543 68.8193 60.2628 67.2436 58.8794 66.3039C57.4781 65.3828 55.2841 64.5812 52.2968 63.8998L46.7927 62.6561C43.1968 61.8456 40.6526 60.9518 39.159 59.9753C36.5773 58.28 35.2867 55.7467 35.2867 52.3751C35.2867 48.7273 36.5499 45.7329 39.0756 43.393C41.6019 41.0532 45.1794 39.8833 49.8074 39.8833C54.0668 39.8833 57.6856 40.9107 60.6639 42.9649C63.6417 45.0191 65.1309 48.3036 65.1309 52.8172H59.9585C59.6816 50.6434 59.092 48.976 58.188 47.815C56.5103 45.696 53.6612 44.6367 49.6418 44.6367C46.3961 44.6367 44.0639 45.3187 42.6441 46.682C41.2238 48.0453 40.5139 49.63 40.5139 51.4354C40.5139 53.4254 41.344 54.8809 43.0033 55.8021C44.0913 56.3918 46.5527 57.1285 50.3886 58.0128L56.0863 59.3118C58.8335 59.9384 60.9543 60.7953 62.4479 61.8819C65.029 63.7802 66.3201 66.5342 66.3201 70.1457C66.3201 74.6415 64.6833 77.8561 61.4102 79.7906C58.1376 81.7252 54.3342 82.6928 50.001 82.6928C44.9489 82.6928 40.9933 81.4033 38.1352 78.8237C35.2772 76.2625 33.8759 72.7896 33.9313 68.4045H39.1036Z" fill="white"/>
<path d="M106.11 40.9058V45.7425H92.4186V81.5046H86.8317V45.7425H73.1406V40.9058H106.11Z" fill="white"/>
<path d="M131.074 64.8669L124.906 46.9309L118.351 64.8669H131.074ZM122.03 40.9058H128.253L142.996 81.5046H136.966L132.844 69.3443H116.775L112.377 81.5046H106.734L122.03 40.9058Z" fill="white"/>
<path d="M170.145 59.5054C172.726 59.5054 174.769 58.9894 176.271 57.9581C177.775 56.9263 178.526 55.0655 178.526 52.3752C178.526 49.4825 177.475 47.5111 175.372 46.4608C174.248 45.9085 172.745 45.6318 170.864 45.6318H157.422V59.5054H170.145ZM151.918 40.9058H170.726C173.823 40.9058 176.378 41.3574 178.388 42.2601C182.205 43.9918 184.113 47.1885 184.113 51.8503C184.113 54.2824 183.61 56.2723 182.606 57.8195C181.6 59.3673 180.195 60.611 178.388 61.5506C179.973 62.1957 181.167 63.043 181.969 64.0933C182.771 65.1436 183.219 66.8479 183.311 69.2062L183.504 74.6505C183.559 76.1983 183.689 77.3498 183.892 78.1049C184.223 79.395 184.814 80.224 185.662 80.5923V81.5046H178.913C178.728 81.1546 178.581 80.703 178.471 80.1502C178.36 79.5974 178.267 78.5292 178.194 76.9445L177.862 70.1732C177.733 67.5204 176.746 65.7423 174.903 64.8396C173.851 64.3421 172.201 64.0933 169.951 64.0933H157.422V81.5046H151.918V40.9058Z" fill="white"/>
<path d="M223.985 40.9058V45.7425H210.294V81.5046H204.707V45.7425H191.016V40.9058H223.985Z" fill="white"/>
</svg>
